HIERARCHY
ROOT ui
{
	 OFFSET 0 0 0
	 CHANNELS 3 XPosition YPosition Z Position
	 EndSite
	 {
	 OFFSET 0 -1 0
	 }
}
ROOT li
{
	 OFFSET 0 0 0
	 CHANNELS 3 XPosition YPosition Z Position
	 EndSite
	 {
	 OFFSET 0 -1 0
	 }
}
ROOT ul
{
	 OFFSET 0 0 0
	 CHANNELS 3 XPosition YPosition Z Position
	 EndSite
	 {
	 OFFSET 0 -1 0
	 }
}
ROOT ll
{
	 OFFSET 0 0 0
	 CHANNELS 3 XPosition YPosition Z Position
	 EndSite
	 {
	 OFFSET 0 -1 0
	 }
}
ROOT tt
{
	 OFFSET 0 0 0
	 CHANNELS 3 XPosition YPosition Z Position
	 EndSite
	 {
	 OFFSET 0 -1 0
	 }
}
ROOT tb
{
	 OFFSET 0 0 0
	 CHANNELS 3 XPosition YPosition Z Position
	 EndSite
	 {
	 OFFSET 0 -1 0
	 }
}
ROOT td
{
	 OFFSET 0 0 0
	 CHANNELS 3 XPosition YPosition Z Position
	 EndSite
	 {
	 OFFSET 0 -1 0
	 }
}
ROOT v
{
	 OFFSET 0 0 0
	 CHANNELS 3 XPosition YPosition Z Position
	 EndSite
	 {
	 OFFSET 0 -1 0
	 }
}
ROOT bn
{
	 OFFSET 0 0 0
	 CHANNELS 3 XPosition YPosition Z Position
	 EndSite
	 {
	 OFFSET 0 -1 0
	 }
}
MOTION
Frames: 30
Frame Time: 0.002
-0.010206880569458008	-0.004347856044769287	0		0.4748564758300781	-2.414427490234375	0		-1.0051605224609375	0.2187042999267578	0		-0.6517353515625	-2.37753759765625	0		2.059287353515625	-0.2675562744140625	0		3.476000244140625	0.19851280212402345	0		4.6466669921875	0.66305126953125	0		6.0299794921875	0.6045391235351563	0		-0.22186798095703125	5.907224609375	0		
0.003540163040161133	-0.010536951065063476	0		0.4227364501953125	-2.406697021484375	0		-1.034333251953125	0.21814573669433593	0		-0.6519585571289063	-2.37751416015625	0		2.07009912109375	-0.26875265502929685	0		3.474725341796875	0.19045292663574218	0		4.6602041015625	0.6407530517578125	0		6.04269873046875	0.5952208862304688	0		-0.2067686767578125	5.91602490234375	0		
0.07358560943603516	4.616889953613281E-4	0		0.4556256103515625	-2.402184814453125	0		-0.9913925170898438	0.22155361938476562	0		-0.6371942138671876	-2.381718994140625	0		2.097085693359375	-0.26119769287109373	0		3.54076220703125	0.20042002868652345	0		4.6691025390625	0.6404976806640625	0		6.051822265625	0.6109288330078125	0		-0.07146588134765625	5.9341083984375	0		
-0.003454174041748047	0.0025220000743865966	0		0.4244752197265625	-2.403786376953125	0		-0.995504638671875	0.217607666015625	0		-0.6563311157226562	-2.3824619140625	0		2.128042236328125	-0.2597220153808594	0		3.508453857421875	0.18275270080566405	0		4.68595654296875	0.6331047973632813	0		6.04255078125	0.594868896484375	0		-0.2066407928466797	5.91599658203125	0		
-0.0015752559900283813	-0.005556207180023193	0		0.4404439392089844	-2.401076171875	0		-1.0005623779296875	0.2136552734375	0		-0.6624873657226562	-2.3884091796875	0		2.13108447265625	-0.25587322998046874	0		3.53336376953125	0.17625273132324218	0		4.69086669921875	0.625857177734375	0		6.027546875	0.5938681030273437	0		-0.22064311218261717	5.90515185546875	0		
-0.0324587631225586	-1.8914400041103362E-4	0		0.411423828125	-2.4007490234375	0		-1.0385103759765626	0.21414967346191408	0		-0.63364111328125	-2.39787646484375	0		2.1633583984375	-0.23946205139160157	0		3.543210693359375	0.1619419403076172	0		4.69071240234375	0.6106572875976563	0		6.01649267578125	0.58578759765625	0		-0.22043988037109374	5.905083984375	0		
0.07058968353271484	-0.0037542579174041748	0		0.4223600158691406	-2.40701416015625	0		-1.07739892578125	0.2156359405517578	0		-0.6878265991210938	-2.412185546875	0		2.155625732421875	-0.226505126953125	0		3.557301025390625	0.16154937744140624	0		4.70371533203125	0.6032488403320313	0		6.0306943359375	0.5923277587890625	0		-0.07272376251220704	5.93689306640625	0		
-0.02427362060546875	-0.00252120304107666	0		0.42649566650390625	-2.402204833984375	0		-1.034227783203125	0.21792730712890626	0		-0.65180859375	-2.4158037109375	0		2.203513427734375	-0.24336712646484376	0		3.571316650390625	0.15313584899902344	0		4.73485498046875	0.6025618896484375	0		6.03059423828125	0.5750509643554688	0		-0.2199132843017578	5.9048759765625	0		
-0.0030459520816802977	0.002031999111175537	0		0.44263616943359374	-2.3995908203125	0		-1.0381209716796875	0.21386399841308593	0		-0.670707763671875	-2.415662353515625	0		2.237748291015625	-0.23805487060546876	0		3.618359375	0.1442298583984375	0		4.7438125	0.5871716918945312	0		6.01986767578125	0.5819127807617187	0		-0.08629411315917969	5.92582958984375	0		
-0.0059231271743774416	-0.0020947580337524413	0		0.44073178100585936	-2.401742431640625	0		-0.9999400634765625	0.21317327880859374	0		-0.5979068603515625	-2.43886083984375	0		2.26199169921875	-0.23362155151367187	0		3.623441650390625	0.13690464782714845	0		4.76578857421875	0.5715775756835938	0		6.02906005859375	0.5814737548828125	0		-0.20513644409179688	5.9153681640625	0		
-0.00573053503036499	-0.002287990093231201	0		0.41391744995117186	-2.398558349609375	0		-1.0427957763671876	0.20961952209472656	0		-0.6747742919921875	-2.438935791015625	0		2.26625048828125	-0.22892257690429688	0		3.629349609375	0.11654753875732422	0		4.77477783203125	0.5561517333984375	0		6.02513671875	0.5722061767578125	0		-0.2189701690673828	5.90438134765625	0		
-0.005532144069671631	-0.0025033740997314454	0		0.424978515625	-2.40493994140625	0		-1.037535888671875	0.21335345458984376	0		-0.6427305908203125	-2.446596435546875	0		2.29948388671875	-0.22665997314453126	0		3.63934814453125	0.10211412811279297	0		4.78377099609375	0.5407089233398438	0		6.0294619140625	0.5798068237304688	0		-0.2527170867919922	5.89965966796875	0		
0.010635697364807128	-0.004969467163085937	0		0.4312303161621094	-2.398271484375	0		-1.0712723388671874	0.21762646484375	0		-0.6785471801757812	-2.44430224609375	0		2.325962890625	-0.2073170166015625	0		3.683673583984375	0.11017312622070312	0		4.8078623046875	0.5320353393554688	0		6.0347861328125	0.587380859375	0		-0.06890502166748047	5.93279052734375	0		
-0.0020839049816131594	9.626110196113587E-4	0		0.44742254638671874	-2.395764404296875	0		-1.0371370849609376	0.2129011993408203	0		-0.617619873046875	-2.46042236328125	0		2.37110400390625	-0.21126043701171876	0		3.6864931640625	0.08381359100341797	0		4.8357587890625	0.5102953491210938	0		6.03498876953125	0.5870206909179687	0		-0.20388262939453125	5.91448486328125	0		
-0.0019028619527816772	6.926630139350891E-4	0		0.4087007751464844	-2.3864794921875	0		-1.042010009765625	0.20871966552734375	0		-0.6256055297851563	-2.46956640625	0		2.371281982421875	-0.2115667266845703	0		3.691573974609375	0.07641574096679687	0		4.844513671875	0.4798245849609375	0		6.03517919921875	0.5866582641601562	0		-0.08543573760986328	5.92551416015625	0		
-0.004797066211700439	-0.003545967102050781	0		0.4357866516113281	-2.39015673828125	0		-1.0518284912109375	0.20959519958496095	0		-0.6685567626953125	-2.475218994140625	0		2.378571533203125	-0.20298216247558593	0		3.728517822265625	0.060552345275878904	0		4.854451171875	0.4633360595703125	0		6.024466796875	0.5944549560546875	0		-0.25258187866210935	5.8996474609375	0		
-0.004657308101654053	-0.0038373739719390868	0		0.38400701904296874	-2.3827021484375	0		-1.0796834716796875	0.20971980285644531	0		-0.6659210815429687	-2.508543212890625	0		2.413647705078125	-0.2078048553466797	0		3.728658203125	0.06022032165527344	0		4.87847802734375	0.4546458129882813	0		6.038466796875	0.5838966674804688	0		-0.25237789916992187	5.89935888671875	0		
-0.001488178014755249	-1.7779499292373658E-4	0		0.4420927429199219	-2.3838408203125	0		-1.0755126953125	0.21337388610839844	0		-0.6678590698242187	-2.51080517578125	0		2.4119169921875	-0.19709388732910157	0		3.743638671875	0.05067660522460937	0		4.89425927734375	0.4310794982910156	0		6.03568505859375	0.59059228515625	0		-0.20397625732421876	5.9153681640625	0		
-0.0014085359573364259	-4.7520700097084044E-4	0		0.4131636047363281	-2.383720947265625	0		-1.08137353515625	0.21716815185546876	0		-0.6050009765625	-2.526009033203125	0		2.473989013671875	-0.19830000305175782	0		3.780497802734375	0.03482706069946289	0		4.905123046875	0.415600341796875	0		6.04263671875	0.5811646728515625	0		-0.0715484848022461	5.93616015625	0		
-0.011232729911804198	0.008374988555908203	0		0.44017498779296876	-2.386405029296875	0		-1.041463134765625	0.2072976531982422	0		-0.6480401611328125	-2.5316796875	0		2.487959716796875	-0.20379698181152345	0		3.79441064453125	0.02532971954345703	0		4.92471728515625	0.384017822265625	0		6.037638671875	0.577940185546875	0		-0.08664341735839844	5.9260849609375	0		
-0.0013564820289611815	-0.0010540510416030885	0		0.41322418212890627	-2.38429833984375	0		-1.0463837890625	0.2120797576904297	0		-0.6143582763671875	-2.555456787109375	0		2.556931884765625	-0.20706950378417968	0		3.817314453125	0.017728353500366213	0		4.95938671875	0.36024932861328124	0		6.0406142578125	0.5756368408203125	0		-0.08764608764648438	5.9268134765625	0		
-0.0013868759870529176	-0.0013276109695434571	0		0.42309759521484375	-2.3927119140625	0		-1.0754129638671874	0.21221632385253905	0		-0.678461181640625	-2.56181005859375	0		2.5559755859375	-0.20230714416503906	0		3.837050537109375	0.0012002569437026978	0		4.9732216796875	0.3508170166015625	0		6.0405791015625	0.5754152221679687	0		-0.2389718017578125	5.91072314453125	0		
0.008688249588012696	0.008268303871154785	0		0.42131881713867186	-2.3749384765625	0		-1.0704410400390625	0.2148719940185547	0		-0.6116494140625	-2.57304345703125	0		2.61219287109375	-0.18334512329101563	0		3.880107666015625	0.009366843223571777	0		4.99778564453125	0.32526101684570313	0		6.0407490234375	0.5922288818359375	0		-0.20405842590332032	5.9139560546875	0		
-0.0015612579584121705	-0.0018272839784622193	0		0.44413119506835935	-2.38350390625	0		-1.07559326171875	0.21168704223632812	0		-0.6208594970703125	-2.583162841796875	0		2.60440771484375	-0.16143304443359374	0		3.876915283203125	0.003229115962982178	0		5.0343388671875	0.301565185546875	0		6.00855078125	0.5865425415039063	0		-0.2223542022705078	5.90697216796875	0		
-0.001706015944480896	-0.0020485169887542723	0		0.44200088500976564	-2.38568798828125	0		-1.0426876220703125	0.2149705810546875	0		-0.5893211059570312	-2.608853759765625	0		2.64639111328125	-0.15321318054199218	0		3.9184345703125	-0.020524703979492187	0		5.04884130859375	0.2772213439941406	0		6.01227978515625	0.5783731079101563	0		-0.07413128662109375	5.938611328125	0		
-0.011759636878967285	0.006894838809967041	0		0.40399923706054686	-2.376332763671875	0		-1.0859149169921876	0.2123684539794922	0		-0.62367822265625	-2.62457470703125	0		2.67612060546875	-0.15978915405273436	0		3.92722119140625	-0.022772794723510743	0		5.07840380859375	0.2596959838867188	0		6.0232119140625	0.5871382446289063	0		-0.08959445953369141	5.92762744140625	0		
-0.0021135079860687255	-0.0024243381023406983	0		0.41474188232421877	-2.3826572265625	0		-1.0821004638671874	0.215110107421875	0		-0.58511962890625	-2.644322998046875	0		2.696013671875	-0.152193359375	0		3.965994140625	-0.023420991897583007	0		5.11279736328125	0.23313377380371095	0		6.0239609375	0.5860830078125	0		-0.20811114501953126	5.91714501953125	0		
-0.0023745830059051514	-0.0025759201049804685	0		0.41859295654296874	-2.37885693359375	0		-1.0823665771484374	0.2149334716796875	0		-0.6154740600585937	-2.655056884765625	0		2.75192236328125	-0.1410866394042969	0		3.966590087890625	-0.033493846893310544	0		5.1315146484375	0.23182847595214845	0		6.03169970703125	0.5869563598632812	0		-0.20850953674316405	5.91698876953125	0		
-0.008498169898986817	0.009383040428161621	0		0.4364351806640625	-2.3732314453125	0		-1.0436715087890625	0.21422476196289061	0		-0.5908982543945313	-2.66855322265625	0		2.761828857421875	-0.12729414367675781	0		4.01526123046875	-0.036230384826660154	0		5.1517529296875	0.1995224609375	0		6.0262763671875	0.5790407104492188	0		-0.20894052124023438	5.9168583984375	0		
-0.028994571685791014	-0.002428855895996094	0		0.4071627197265625	-2.37290625	0		-1.0920980224609376	0.20779026794433594	0		-0.6033662109375	-2.68249169921875	0		2.79555859375	-0.12381979370117188	0		4.0279912109375	-0.03242874908447266	0		5.17116259765625	0.18125082397460937	0		6.0220517578125	0.5871283569335938	0		-0.22553636169433594	5.90698486328125	0		
